<svg xmlns="http://www.w3.org/2000/svg" width="350.63" height="517.51" viewBox="0 0 350.63 517.51">
  <g id="Groupe_1" data-name="Groupe 1" transform="translate(-767.499 -117.99)">
    <path id="Soustraction_4" data-name="Soustraction 4" d="M-1578.238,466.512H-1800.99a25.8,25.8,0,0,1-2.623-10.826,36.051,36.051,0,0,1,1.693-11.157c1.078-3.631.22-8.165-.942-11.2a82.885,82.885,0,0,0-5.618-11.1l-.008-.015c-.946-1.662-1.924-3.38-2.892-5.185-.673.8-1.331,1.508-1.968,2.194a19.767,19.767,0,0,0-3.126,3.962,47.048,47.048,0,0,1-3.992,6.7,4.531,4.531,0,0,1-3.677,2.072c-1.993,0-4.712-1.29-8.952-3.414-.626-.313-1.227-.644-1.923-1.028l0,0c-.332-.183-.676-.372-1.05-.575,1.917-3.712,3.741-7.239,6.1-11.792a19.038,19.038,0,0,1-2.914.236c-5.874,0-10.15-3.089-13.072-9.444-3.148-6.855-5.958-14.007-8.675-20.923-.531-1.353-1.133-2.886-1.717-4.359-1.98-5-3.947-10.1-5.85-15.028-2.782-7.212-5.659-14.669-8.636-21.962a73.349,73.349,0,0,1-4.434-15.678,92.64,92.64,0,0,1-1.229-15.778c.021-10.273,1.4-20.5,3.063-31.848.305-2.08.643-4.19.969-6.231,1.488-9.292,3.026-18.9,1.982-28.833a89.343,89.343,0,0,1,2.823-34.78,76.177,76.177,0,0,1,17.119-30.155c5.6-6.1,13.182-10.571,20.514-14.9,3.276-1.932,6.662-3.93,9.826-6.046.622-.415,1.254-.841,1.865-1.252l.049-.033c2.608-1.757,5.3-3.571,8.057-5.165.911-.529,1.83-1.1,2.719-1.646,3-1.851,6.1-3.764,9.4-4.574,7.946-1.957,13.814-5.652,17.938-11.3a212.7,212.7,0,0,0,13.233-20.615c.966-1.7.755-5.223-.426-7.114-.6-.959-1.214-1.917-1.808-2.844l-.015-.023c-3.88-6.044-7.545-11.753-8.322-19.628-.351-3.556-2.357-6.814-4.481-10.265a39.912,39.912,0,0,1-3.932-7.519l-.058-.165c-1.277-3.664-2.6-7.454-2.678-11.181a13.45,13.45,0,0,1,.975-5.515,14.708,14.708,0,0,1,3.807-5.264c.631-.578.542-1.977.456-3.33-.034-.529-.065-1.029-.057-1.485.174-10.16.4-23.546.573-36.985a17.566,17.566,0,0,0-.337-4.362,25.85,25.85,0,0,1-.747-7.952,21,21,0,0,1,1.711-6.957A24.085,24.085,0,0,1-1778.4-21.8a35.222,35.222,0,0,1,5.767-5.244c6.443-4.747,14.965-10.926,23.746-16.627A41.152,41.152,0,0,1-1726.371-50a50.2,50.2,0,0,1,13.018,1.742,50.875,50.875,0,0,1,12.161,5.013,41.711,41.711,0,0,1,17.5,18.568c.815,1.779,1.628,3.58,2.414,5.322s1.669,3.7,2.532,5.58c5.25,11.408,6.926,24.1,5.125,38.8a86.81,86.81,0,0,0-.869,14.417,18.355,18.355,0,0,0,1.529,5.623c.392,1.01.8,2.054,1.092,3.1.1.347.209.708.317,1.058l0,.01a9.491,9.491,0,0,1,.668,4.361q-.23,1.188-.458,2.377a186.761,186.761,0,0,1-5.013,21.458c-.539,1.68-2.557,2.918-4.509,4.116a28.516,28.516,0,0,0-2.584,1.715l-.781-.425-.006,0-.923-.5c-.192,2.267-.42,4.571-.641,6.8v.009c-.579,5.851-1.178,11.9-1.174,17.844,0,2.473,2.666,5.382,4.9,7.387,11.52,10.346,25.528,15.592,41.635,15.592.737,0,1.489-.011,2.237-.033.1,0,.192,0,.288,0a20.812,20.812,0,0,1,4.376.642c.71.156,1.44.316,2.156.435,3.129.517,6.308,1.055,9.382,1.575l.026,0c7.061,1.2,14.36,2.431,21.563,3.493a21.52,21.52,0,0,1,8.26,2.668,13.369,13.369,0,0,1,5.505,6.7,9.116,9.116,0,0,0,2.8,3.168c.168.141.334.281.5.42a82.823,82.823,0,0,1,16.031,18.025,64.023,64.023,0,0,1,5.481,10.573,62.462,62.462,0,0,1,3.449,11.833c.415,2.205.936,4.427,1.44,6.575.391,1.669.8,3.395,1.149,5.106l.077.376c.765,3.742,1.487,7.275,5.49,9.5,1.9,1.054,4.094,3.909,4.083,6.009-.038,7.1,3.229,12.894,6.388,18.5,1.155,2.049,2.348,4.168,3.362,6.319a97.53,97.53,0,0,1,8.463,28.821,132.607,132.607,0,0,1,.419,30.147c-.253,2.8-.484,5.616-.708,8.337-.807,9.82-1.641,19.973-3.527,29.926a43.24,43.24,0,0,1-2.687,9.16,24.281,24.281,0,0,1-4.486,7.041c-3.8,4.082-9.07,6.459-16.115,7.266a153.406,153.406,0,0,0-18.8,3.793c-3.109.764-6.322,1.553-9.5,2.226-3.461.731-5.287,1.934-5.03,6.188.764,12.638,1.193,25.5,1.608,37.939v.007q.113,3.379.227,6.758c.557,16.393,4.317,32.306,8.3,47.059Zm-140.516-312.578h0c.824.572,1.6,1.16,2.341,1.729a24.361,24.361,0,0,0,4.71,3.064c2.438,1.077,3.9,2.517,4.476,4.4.491,1.615.37,3.544-.394,6.257-.175.625-.368,1.257-.573,1.926l0,.006c-.97,3.173-1.973,6.454-1.082,9.007,1.485,4.273,3.751,8.17,6.374,12.682,1.137,1.955,2.31,3.973,3.491,6.15.152-1.083.288-1.969.409-2.75l0-.011c.216-1.4.372-2.415.437-3.421.09-1.383.143-2.8.2-4.165v-.023a54.964,54.964,0,0,1,1.228-11.411,21.459,21.459,0,0,1,2.091-5.311,19.647,19.647,0,0,1,3.862-4.846c.859-.8,1.042-2.354,1.218-3.861a18.474,18.474,0,0,1,.323-2.086c.2-.822.327-1.708.452-2.566.279-1.9.567-3.865,1.589-5.252,3.968-5.391,3.238-10.806,2.465-16.538a46.924,46.924,0,0,1-.618-8.992c-2.759,2-5.393,3.846-7.939,5.636-5.406,3.8-10.508,7.387-15.255,11.275a19.855,19.855,0,0,1-12.969,4.885,26.558,26.558,0,0,1-8.235-1.429c-1.189-.387-2.406-.749-3.583-1.1l-.019-.006c-.6-.178-1.216-.362-1.823-.547l-8.427-2.581-.819-.251-.356-.109c-5.727-1.754-11.488-3.519-17.342-5.31.39,1.863.762,3.66,1.174,5.648,1.133,5.47,2.2,10.636,3.377,15.768a7.219,7.219,0,0,0,2.067,3.052c9.109,9.52,18.331,19.113,27.249,28.389l7.2,7.486c5.1-12.66,1.553-24.069-10.555-33.912l3.295-2.706c3.427-2.813,6.668-5.473,9.969-8.18Z" transform="translate(2644.5 168.49)" fill="#9e8e6a" stroke="rgba(0,0,0,0)" stroke-width="1"/>
  </g>
</svg>
